<?xml version="1.0" encoding="utf-8"?>
<svg xmlns="http://www.w3.org/2000/svg" viewBox="-68 -201.1 907.715 908.974" id="meerkat">
  <defs>
    <linearGradient gradientUnits="userSpaceOnUse" x1="415.502" y1="-121.475" x2="415.502" y2="662.9" id="gradient-0" gradientTransform="matrix(-0.087128, 0.996198, -0.219723, -0.019217, 517.70306, -171.317644)">
      <stop offset="0" style="stop-color: rgb(80.392% 52.157% 24.706%)"/>
      <stop offset="1" style="stop-color: rgb(52.126% 27.866% 0%)"/>
    </linearGradient>
  </defs>
  <ellipse style="stroke: rgb(0, 0, 0); fill-rule: nonzero; stroke-width: 50px; fill: rgb(123, 65, 237);" cx="386.586" cy="251.96" rx="427.243" ry="427.243"/>
  <path stroke="#000" stroke-width="26.133" d="M 193.5 638.9 C 215.9 574.5 265.9 479.5 277.9 322.3 C 289.8 165.1 286.1 113.5 277.9 61.1 C 269.7 8.7 241.3 -51.9 328.7 -92.3 C 416.1 -132.7 462.4 -128.2 499.7 -96.8 C 537 -65.4 551.9 -46.3 563.2 -38.4 C 571.4 -32.6 585.6 -21.2 602 -18.2 C 618.4 -15.2 635.6 -7 637.1 2 C 638.6 11 636.4 36.9 622.2 46.9 C 607.3 57.4 575.9 84.3 521.4 87.3 C 466.9 90.3 458.7 90.7 452.7 115.4 C 446.7 140.1 448.2 162.7 449.2 181 C 450.1 197.7 451.9 219.8 465.4 249.8 C 478.8 279.7 552.8 428.7 540.1 481.8 C 527.4 534.9 508.7 640.5 490.1 662.9" style="fill: url(&quot;#gradient-0&quot;);"/>
  <path d="M 406.6 -8.9 C 406.6 -8.9 406.5 -9.1 406.4 -9.5 C 406.3 -9.7 406.3 -9.9 406.2 -10.2 C 406.2 -10.3 406.1 -10.5 406.1 -10.6 C 406.1 -10.7 406 -10.8 406 -10.9 L 405.7 -11.5 C 405.5 -11.8 405.4 -12.2 405.2 -12.5 C 405 -12.9 404.8 -13.3 404.5 -13.7 C 404.3 -14.1 404 -14.6 403.7 -15.1 C 401.3 -19 396.8 -24.6 390.4 -29.8 C 387.2 -32.4 383.5 -34.8 379.4 -36.6 C 375.3 -38.5 370.8 -39.7 366.3 -40 C 364 -40.2 361.7 -40 359.4 -39.7 C 358.3 -39.4 357.1 -39.3 355.9 -39 L 354.2 -38.5 L 352.5 -37.9 C 347.9 -36.2 343.4 -33.5 339.2 -30.1 L 338.9 -30 L 338.8 -29.9 C 338.9 -30 338.6 -29.7 339 -30 L 338.9 -30 L 338.5 -29.6 L 336.7 -28.1 C 336.4 -27.9 336.1 -27.6 335.9 -27.4 C 335.1 -26.5 334.2 -25.8 333.3 -24.8 C 331.5 -22.9 330 -20.9 328.7 -18.8 C 327.4 -16.7 326.3 -14.5 325.4 -12.4 C 324.6 -10.2 324 -7.9 323.6 -5.7 C 323.2 -3.4 323.1 -1.1 323.1 1.1 C 323.2 3.4 323.4 5.6 323.9 7.8 C 324.4 10 325 12.1 325.7 14.1 C 326.4 16.1 327.3 18 328.2 19.8 C 330.1 23.4 332.2 26.5 334.3 29.1 C 336.4 31.7 338.5 33.8 340.3 35.5 C 342.1 37.2 343.6 38.4 344.7 39.2 C 345.8 40 346.3 40.4 346.3 40.4 L 346.6 40.6 C 349.1 42.5 349.5 46 347.6 48.5 C 345.9 50.7 343 51.3 340.6 50.1 L 338.4 49 C 337.7 48.6 336.8 48.1 335.8 47.6 C 334.8 47 333.7 46.3 332.4 45.5 C 329.9 43.8 327 41.6 324 38.6 C 321 35.7 317.8 32 315 27.6 C 312.2 23.1 309.5 17.9 307.9 11.8 C 307 8.8 306.5 5.6 306.1 2.3 C 305.8 -1 305.9 -4.5 306.2 -8 C 306.6 -11.5 307.5 -15 308.6 -18.5 C 309.8 -21.9 311.4 -25.2 313.3 -28.4 C 315.2 -31.5 317.4 -34.5 319.8 -37.1 C 320.9 -38.4 322.4 -39.8 323.7 -41.1 C 324.4 -41.8 324.9 -42.2 325.5 -42.7 L 326.4 -43.5 L 326.8 -43.9 L 327.1 -44.2 L 327.2 -44.3 L 327.5 -44.5 C 333 -48.9 339.2 -52.7 346.2 -55 C 353.1 -57.4 360.6 -58.3 367.6 -57.5 C 371.1 -57.2 374.5 -56.3 377.6 -55.3 C 379.2 -54.7 380.7 -54.2 382.2 -53.5 C 382.9 -53.2 383.7 -52.8 384.4 -52.5 C 385.1 -52.1 385.8 -51.8 386.5 -51.4 C 392 -48.5 396.5 -44.9 400.2 -41.3 C 404 -37.7 407 -34 409.3 -30.5 C 411.7 -27 413.4 -23.7 414.7 -20.9 C 415 -20.2 415.3 -19.5 415.5 -18.8 C 415.7 -18.1 416 -17.5 416.2 -16.9 C 416.4 -16.3 416.5 -15.7 416.7 -15.2 C 416.8 -14.6 417 -14 417.1 -13.5 C 417.2 -13.2 417.2 -13 417.2 -12.8 C 417.2 -12.6 417.2 -12.5 417.3 -12.3 C 417.3 -12 417.4 -11.8 417.4 -11.6 C 417.4 -11.2 417.5 -11 417.5 -11 C 417.8 -7.9 415.5 -5.1 412.5 -4.8 C 409.9 -4.6 407.4 -6.3 406.6 -8.9 M 478.9 -14.2 C 478.9 -14.2 479.1 -14.2 479.4 -14.1 C 479.7 -14.1 480.3 -14 480.9 -14 C 482.1 -13.9 483.9 -13.9 486 -13.9 C 490.2 -14 496 -14.6 501.5 -16 C 504.3 -16.7 506.9 -17.5 509.3 -18.5 C 511.7 -19.5 513.8 -20.5 515.3 -21.6 C 516.1 -22.1 516.6 -22.6 517.1 -23.1 C 517.5 -23.5 517.8 -23.9 517.9 -24.1 C 518 -24.2 518 -24.3 518 -24.4 C 518 -24.5 518.1 -24.5 518.1 -24.6 L 518.1 -24.7 L 519.7 -26.5 C 521.2 -28.2 523.9 -28.4 525.6 -26.9 C 526.9 -25.7 527.3 -23.9 526.8 -22.3 L 526.5 -21.4 C 526.4 -21.1 526.2 -20.7 526 -20.4 C 525.8 -20 525.6 -19.6 525.2 -19.2 C 524.6 -18.3 523.8 -17.5 522.9 -16.7 C 522 -15.9 521 -15.2 519.8 -14.5 C 515.3 -11.8 509.2 -9.9 503 -8.7 C 496.8 -7.5 490.6 -7.2 485.9 -7.4 C 483.5 -7.5 481.6 -7.7 480.2 -7.8 C 479.5 -7.9 479 -8 478.7 -8 C 478.4 -8.1 478.2 -8.1 478.2 -8.1 C 476.5 -8.4 475.3 -10 475.6 -11.7 C 475.8 -13.2 477.3 -14.3 478.9 -14.2"/>
  <path d="M 528.4 -24.4 C 528.4 -12.8 518.4 -3.4 506 -3.4 C 493.6 -3.4 483.6 -12.8 483.6 -24.4 C 483.6 -36 493.6 -45.4 506 -45.4 C 518.4 -45.3 528.4 -36 528.4 -24.4 M 590.4 -18.2 C 587.8 0.7 613.9 41.8 620.9 45.9 C 627.9 50 630.8 13.8 630.8 13.8 C 630.8 13.8 629.7 0 622.7 -7.9 C 615.4 -16.1 602.2 -18.3 599.8 -18.3 L 590.4 -18.3"/>
  <path fill="none" stroke="#000" stroke-linecap="round" stroke-width="13.067" d="M 516.1 45.4 C 531 55.1 565.1 70.1 587.7 69.4"/>
  <path fill="none" stroke="#000" stroke-linecap="round" stroke-linejoin="round" stroke-width="13.067" d="M 390.7 330.2 C 382.5 347.4 351.1 400.6 378.8 456.7 C 406.4 512.8 416.5 592.5 420.2 603 C 423.9 613.5 435.1 615 440.4 612.7 C 445.6 610.5 469.1 595.5 467.3 579 C 465.4 562.5 437.8 482.1 445.3 440.9 C 452.8 399.7 455.8 376.5 455 366.1"/>
</svg>